<?xml version="1.0" encoding="UTF-8"?><svg id="Layer_2" xmlns="http://www.w3.org/2000/svg" viewBox="0 0 610 295.63"><defs><style>.cls-1{fill:#45b06c;}.cls-2{stroke-width:10px;}.cls-2,.cls-3{stroke:#10b981;stroke-linecap:round;stroke-linejoin:round;}.cls-2,.cls-4{fill:#10b981;}.cls-5{fill:#fff;}.cls-3{fill:none;stroke-width:16px;}</style></defs><g id="Layer_1-2"><g id="arrow"><path class="cls-3" d="M527.33,117.5v50c0,27.61-22.39,50-50,50h-50"/><polygon class="cls-2" points="412.67 217.5 455.98 242.5 455.98 192.5 412.67 217.5"/></g><g id="upload"><rect class="cls-4" x="350" y="0" width="260" height="100" rx="49.97" ry="49.97"/><path class="cls-5" d="M425.33,29.15h5.54v19.4c0,10.25-2.2,18.04-13.86,18.04s-13.96-7.74-13.96-17.62v-19.82h5.54v21.91c0,6.12,1.36,10.82,8.47,10.82s8.26-4.6,8.26-10.41v-22.33Z"/><path class="cls-5" d="M437.93,76.37v-36.66h5.28v3.35c1.41-2.25,3.76-4.03,7.22-4.03,6.8,0,10.77,5.86,10.77,13.91,0,8.78-4.55,13.65-10.51,13.65-3.14,0-5.7-1.2-7.48-3.56v13.33h-5.28ZM443.21,55.82c.94,3.29,3.29,6.17,6.22,6.17,3.82,0,6.27-3.56,6.27-8.99s-1.83-9.52-6.22-9.52c-2.2,0-4.86,1.73-6.27,5.18v7.16Z"/><path class="cls-5" d="M466.69,65.91V29.15h5.28v36.76h-5.28Z"/><path class="cls-5" d="M477.46,52.78c0-8,4.44-13.75,12.24-13.75s12.24,5.75,12.24,13.75-4.45,13.81-12.24,13.81-12.24-5.8-12.24-13.81ZM496.5,52.78c0-5.07-2.3-9.26-6.8-9.26s-6.8,4.18-6.8,9.26,2.3,9.31,6.8,9.31,6.8-4.24,6.8-9.31Z"/><path class="cls-5" d="M527.19,65.91c-2.04,0-4.03-1.46-4.08-3.35-2.04,2.77-4.55,4.03-8.16,4.03-4.24,0-8.31-2.35-8.31-7.9,0-6.43,5.12-9.46,11.03-9.46,1.83,0,3.56.31,5.33.94v-1.52c0-3.29-1.93-5.07-5.54-5.07-2.35,0-4.44,1.41-5.91,3.45l-4.18-2.82c2.35-3.29,6.01-5.18,10.56-5.18,5.75,0,10.35,2.82,10.35,9.46v12.29c0,.52.26.84.84.84h.89v4.29h-2.82ZM523.01,54.72c-1.1-.68-2.88-1.15-4.65-1.15-3.56,0-6.38,1.67-6.38,4.65,0,2.72,1.88,3.92,4.29,3.92,2.88,0,5.18-1.78,6.75-4.5v-2.93Z"/><path class="cls-5" d="M551.93,65.91v-3.35c-1.41,2.25-3.76,4.03-7.22,4.03-6.8,0-10.77-5.86-10.77-13.91,0-8.78,4.55-13.65,10.51-13.65,3.14,0,5.7,1.2,7.48,3.56v-13.44h5.28v36.76h-5.28ZM551.93,49.75c-.94-3.29-3.29-6.17-6.22-6.17-3.82,0-6.28,3.61-6.28,9.05s1.88,9.36,6.12,9.36c2.2,0,4.81-1.83,6.38-5.28v-6.96Z"/></g><g id="cloud"><path class="cls-5" d="M172.97,295.13c-17.14,0-34.27-.04-51.41-.05-16.89,0-34.61,1.66-51.35-.78-27.69-4.03-50.42-23.81-62.26-48.69-12.18-25.6-10.37-57.38,5.37-81.1,3.75-5.65,8.25-10.79,13.28-15.34,3.98-3.6,12.2-7,12.96-12.24.78-5.35-2.63-12.89-2.48-18.64.15-6.06,1.32-12.07,3.42-17.75,4.59-12.41,13.67-22.97,25.3-29.31,13.09-7.14,26.01-7.06,39.88-4.94,3.12.48,6.22-.98,7.91-3.65C139.97,20.87,181.9-3.43,232.44,6.64c49.09,9.78,80.06,45.3,89.35,93.08.54,2.8,2.54,5.12,5.25,6.02,8.32,2.77,16.51,4.8,24.41,9.35,9.06,5.21,17.2,11.96,24.08,19.81,5.9,6.73,10.36,13.85,13.87,21.35,10.76,23,10.74,61.1.65,84.39-2.49,5.74-5.57,11.31-9.6,16.7-9.57,12.79-22.32,23.17-36.85,29.81-16.48,7.54-32.8,8.03-50.6,7.91-22.02-.15-44.05.07-66.07.07h-53.97Z"/></g><g id="igem"><path class="cls-1" d="M202.12,122.88c0-29.06-27.28-45.48-54.04-45.48-46.87,0-72.46,50.55-68.87,128.99,1.91,41.64,23.16,62.39,48.59,62.39,62.99,0,47.06-64.14,53.69-89.2,5.68-21.47,20.63-30.16,20.63-56.71ZM170.17,176.63c-1.84,6.96-2.21,15.53-2.6,24.6-.58,13.47-1.24,28.76-6.74,39.63-2.28,4.76-5.95,8.72-10.51,11.38-5.6,3.22-13.17,4.86-22.52,4.86s-17.88-3.95-24.15-11.41c-7.56-9-11.96-22.74-12.75-39.82-1.11-24.19.63-45.58,5.16-63.57,4.28-16.99,10.85-30.22,19.53-39.3,8.79-9.21,19.73-13.88,32.49-13.88,11.16,0,22.07,3.44,29.97,9.44,8.21,6.28,12.4,14.42,12.4,24.34,0,12.91-4.17,20.23-9.46,29.49-3.85,6.63-8.17,14.22-10.81,24.23v.03Z"/><path class="cls-1" d="M162.27,107.31c-10.11,0-18.31,8.19-18.31,18.3,0,10.11,8.19,18.31,18.3,18.31,10.11,0,18.31-8.19,18.31-18.3h0c0-10.12-8.19-18.31-18.3-18.31ZM162.27,134.55c-4.94,0-8.94-4-8.95-8.93,0-4.94,4-8.94,8.93-8.95,4.94,0,8.94,4,8.95,8.93h0c0,4.94-4,8.94-8.93,8.95Z"/><path class="cls-1" d="M130.38,105.49c-3.96,0-7.17,3.21-7.17,7.17,0,3.96,3.21,7.17,7.17,7.17,3.96,0,7.17-3.21,7.17-7.17h0c0-3.96-3.2-7.17-7.15-7.17,0,0-.01,0-.02,0Z"/><path class="cls-1" d="M306.58,221.33c-1.21-.7-2.58-1.06-3.97-1.06h-18.25c-3.9,0-7.07-3.16-7.07-7.07,0,0,0-.02,0-.03v-55.76c0-3.9,3.16-7.07,7.07-7.07h18.25c1.39,0,2.76-.37,3.97-1.06,2.38-1.37,3.19-4.41,1.83-6.79l-6.73-11.65c-1.38-2.38-4.42-3.19-6.8-1.82l-14.82,8.54c-2.02,1.16-4.58.77-6.15-.95-1.58-1.81-3.42-3.34-5.05-5.1-1.21-1.6-1.35-3.76-.35-5.5l8.55-14.8c1.37-2.38.56-5.42-1.82-6.79l-11.62-6.73c-2.38-1.38-5.42-.58-6.8,1.8l-8.53,14.81c-1.16,2.01-3.56,2.95-5.77,2.26-2.01-.67-4.07-1.18-6.15-1.64-2.27-.51-3.88-2.53-3.87-4.85v-17.07c0-2.75-2.23-4.98-4.98-4.98h-13.45c-2.75,0-4.98,2.23-4.98,4.98h0v29.9c.01,6.31-.9,12.59-2.71,18.64-.26.87.23,1.79,1.09,2.05.31.1.65.1.96,0,42.88-12,74.09,39.02,43.96,71.65h0c-16.81,18.46-48.03,17.9-64.2-1.07-.6-.68-1.64-.75-2.32-.15-.32.29-.52.69-.55,1.12-1.18,17.39-5.4,37.45-19.15,49.36-.44.38-.5,1.04-.12,1.49.07.09.16.16.26.22l11.65,6.73c2.38,1.38,5.42.56,6.8-1.81,0,0,0,0,0,0l8.53-14.79c1.16-2.01,3.56-2.95,5.77-2.26,2.01.64,4.07,1.18,6.15,1.64,2.27.51,3.88,2.53,3.87,4.85v17.07c0,2.75,2.23,4.98,4.98,4.98h13.45c2.75,0,4.98-2.23,4.98-4.98h0v-17.07c0-2.32,1.61-4.34,3.87-4.85,2.08-.45,4.13-1,6.15-1.64,2.22-.69,4.61.25,5.77,2.26l8.53,14.79c1.37,2.38,4.42,3.2,6.8,1.82,0,0,0,0,0,0l11.65-6.73c2.37-1.38,3.19-4.42,1.82-6.79l-8.54-14.8c-1.16-2.01-.77-4.56.94-6.14,1.55-1.42,3.04-2.9,4.47-4.46,1.58-1.72,4.13-2.11,6.15-.95l14.79,8.55c2.38,1.36,5.42.55,6.8-1.83l6.73-11.65c1.36-2.38.55-5.42-1.83-6.79Z"/><rect x="50" y="179.16" width="16.75" height="36.29" rx="2.49" ry="2.49"/><path d="M157.61,181.07h-23.82c-1.37,0-2.48,1.1-2.49,2.47,0,0,0,0,0,.01v7.54c0,1.37,1.1,2.48,2.47,2.49,0,0,0,0,.01,0h9.98v4.51c0,.77-.35,1.49-.96,1.97-2.93,2.24-5.91,3.27-11.54,3.27-8.23.1-14.42-5.78-13.92-18.24,0-10.37,3.51-17.43,13.38-17.71,4.54-.08,8.22,1.85,9.98,5.57.41.88,1.29,1.44,2.25,1.44h13.64c1.37,0,2.49-1.11,2.49-2.49,0-.16-.02-.32-.05-.48-1.21-6.11-6.5-12.71-14.04-15.52-6.69-2.58-23.69-2.58-30.28,1.11-16.32,7.11-19.8,30.18-12.31,44.89,4.92,10.77,16.72,14.65,28.46,14.65,13.65,0,22.31-5.14,26.42-8.38,1.78-1.41,2.82-3.56,2.82-5.84v-18.78c0-1.37-1.1-2.48-2.47-2.49,0,0-.02,0-.03,0Z"/><path d="M243.72,155.14h-45.87c-1.37,0-2.48,1.1-2.49,2.47,0,0,0,0,0,.01v55.33c0,1.37,1.1,2.48,2.47,2.49,0,0,0,0,.01,0h45.87c1.37,0,2.48-1.1,2.49-2.47,0,0,0,0,0-.01v-8.69c0-1.37-1.11-2.49-2.49-2.49h-28.45c-.69,0-1.24-.56-1.24-1.24h0v-9.41c0-.69.56-1.24,1.24-1.24h25.27c1.37,0,2.48-1.12,2.49-2.49v-7.31c0-1.37-1.11-2.49-2.49-2.49h-25.27c-.69,0-1.24-.56-1.24-1.24v-7.1c0-.69.56-1.24,1.24-1.24h28.45c1.37,0,2.49-1.11,2.49-2.49h0v-7.87c.02-1.37-1.08-2.5-2.45-2.51-.01,0-.03,0-.04,0Z"/><rect x="50" y="162.54" width="16.75" height="11.4" rx="2.49" ry="2.49"/><path d="M347.49,155.14h-20.06c-1.14,0-2.13.77-2.41,1.87l-8.08,31.69c-.11.45-.56.72-1,.61-.3-.07-.54-.31-.61-.61l-8.17-31.71c-.28-1.1-1.27-1.87-2.41-1.87h-20.06c-1.37,0-2.49,1.11-2.49,2.49h0v55.35c0,1.37,1.11,2.49,2.49,2.49h10.29c1.37,0,2.48-1.12,2.48-2.49v-36.9c0-.46.37-.83.83-.83.38,0,.71.26.8.62l9.62,37.73c.28,1.1,1.28,1.87,2.41,1.87h9.94c1.14,0,2.13-.77,2.41-1.87l9.65-37.74c.12-.44.57-.71,1.01-.59.36.09.62.42.62.8v36.92c0,1.37,1.1,2.48,2.47,2.49,0,0,0,0,.01,0h10.27c1.37,0,2.49-1.11,2.49-2.49h0v-55.31c.01-1.37-1.09-2.5-2.46-2.51-.02,0-.04,0-.05,0Z"/></g></g></svg>